<svg width="100" height="80" viewBox="0 0 100 80" fill="none" xmlns="http://www.w3.org/2000/svg">
<path d="M37.0401 51.5769L37.5438 51.8918L38.1241 50.9421L37.6299 50.6332C37.0691 50.2827 36.5046 49.9169 35.9555 49.5478L35.3277 50.4677C35.8958 50.8488 36.4698 51.2205 37.0401 51.5769ZM39.8301 53.2038C40.6007 53.6204 41.3771 54.0277 42.1711 54.407L42.6505 53.4073C41.8814 53.0306 41.1181 52.6445 40.3629 52.2244L39.8301 53.2038ZM33.1911 48.9374L33.8664 48.0472C33.1849 47.5303 32.4997 46.9981 31.8357 46.4532L31.1282 47.3103C31.8054 47.8765 32.4847 48.418 33.1911 48.9374ZM44.5573 55.4956C45.3651 55.8316 46.1788 56.1582 47.0041 56.4661L47.3826 55.4164C46.5763 55.1203 45.7817 54.8056 44.9892 54.4662L44.5573 55.4956ZM29.1274 45.605L29.8766 44.787C29.2455 44.2106 28.6107 43.619 28.0066 43.0205L27.2194 43.8148C27.8483 44.4158 28.4773 45.0168 29.1274 45.605ZM49.4924 57.3067C50.3316 57.5713 51.173 57.8113 52.0165 58.0267L52.2825 56.9455C51.4543 56.7268 50.6319 56.4987 49.8022 56.24L49.4924 57.3067ZM25.3909 41.9184L26.214 41.1725C25.6274 40.546 25.0679 39.8974 24.5083 39.2489L23.653 39.9617C24.2221 40.6162 24.8007 41.2766 25.3909 41.9184ZM54.5858 58.632C55.4373 58.8134 56.3064 58.9668 57.166 59.1142L57.3289 58.0076C56.4883 57.8721 55.6346 57.7153 54.8021 57.5458L54.5858 58.632ZM22.0042 37.9047L22.8953 37.2403C22.3687 36.5603 21.8631 35.8675 21.373 35.1714L20.4497 35.8027C20.9493 36.5048 21.468 37.2188 22.0042 37.9047ZM59.7628 59.4639C60.6268 59.5621 61.5023 59.6415 62.3743 59.7057L62.4378 58.589C61.5848 58.5367 60.7341 58.4597 59.8855 58.3582L59.7628 59.4639ZM18.9879 33.6157L19.9375 33.0268C19.4744 32.3086 19.0324 31.5776 18.6021 30.8279L17.6262 31.3744C18.0659 32.13 18.5211 32.8822 18.9879 33.6157ZM64.987 59.8185C65.8575 59.8428 66.7359 59.8331 67.6049 59.8175L67.5631 58.6999C66.7037 58.7215 65.8559 58.7244 64.995 58.706L64.987 59.8185ZM16.3799 29.0752L17.3764 28.5806C16.9826 27.8147 16.6137 27.0514 16.2507 26.2788L15.2278 26.731C15.5945 27.5189 15.9766 28.3034 16.3799 29.0752ZM70.2087 59.6908C71.0761 59.6352 71.9458 59.555 72.8117 59.4596L72.6647 58.3413C71.8141 58.4333 70.9694 58.516 70.1114 58.5775L70.2087 59.6908ZM14.1971 24.3197L15.2404 23.9193C14.9197 23.1211 14.6238 22.3256 14.3434 21.5266L13.2795 21.8752C13.5637 22.6894 13.8669 23.5156 14.1971 24.3197ZM75.4066 59.0934C76.2616 58.9521 77.1224 58.8015 77.9759 58.6202L77.731 57.5317C76.8987 57.7001 76.0569 57.8627 75.2173 58.0006L75.4066 59.0934ZM12.4811 19.3882L13.5654 19.0914C13.3215 18.2762 13.0987 17.4483 12.9007 16.623L11.8054 16.8739C12.007 17.7146 12.2335 18.5577 12.4811 19.3882ZM80.5099 58.0341C81.3561 57.8224 82.189 57.5893 83.0147 57.3258L82.6682 56.2517C81.8542 56.4966 81.0366 56.7262 80.2153 56.9405L80.5099 58.0341ZM11.2488 14.3172L12.3588 14.1274C12.2774 13.6867 12.1959 13.246 12.1203 12.7959L11.003 12.9552C11.0881 13.4112 11.1637 13.8612 11.2488 14.3172ZM85.4879 56.5197C86.3062 56.2256 87.1209 55.9162 87.9223 55.5855L87.4721 54.5505C86.686 54.8778 85.8925 55.1745 85.0896 55.4652L85.4879 56.5197ZM90.2967 54.5358C91.0814 54.1686 91.8529 53.7803 92.6207 53.3766L92.0762 52.3866C91.3237 52.7869 90.5735 53.1625 89.8042 53.5263L90.2967 54.5358ZM94.875 52.0959C95.6165 51.6498 96.3543 51.1884 97.0731 50.7151L96.438 49.7855C95.7346 50.2554 95.018 50.704 94.2919 51.1468L94.875 52.0959Z" fill="#585149"/>
<path d="M96.0169 56.1778L94.9574 55.9358L96.4574 50.4484L91.1371 49.6579L91.3651 48.5263L97.8512 49.4896L96.0169 56.1778Z" fill="#585149"/>
</svg>
