<svg width="128" height="97" viewBox="0 0 128 97" fill="none" xmlns="http://www.w3.org/2000/svg">
<g clip-path="url(#clip0_1207_395)">
<path d="M69.1863 65.4386L69.7172 65.1788L69.214 64.1757L68.693 64.4306C68.1019 64.7198 67.4959 65.004 66.895 65.2733L67.3482 66.3009C67.9691 66.0218 68.5851 65.7328 69.1863 65.4386ZM72.0277 63.9368C72.7847 63.5045 73.5369 63.0622 74.2744 62.59L73.6758 61.6459C72.9534 62.0984 72.2262 62.5408 71.4743 62.9582L72.0277 63.9368ZM64.9306 67.2984L64.5275 66.2463C63.7319 66.549 62.9214 66.8467 62.1111 67.1195L62.4693 68.1812C63.3045 67.9086 64.1198 67.621 64.9306 67.2984ZM76.4473 61.1432C77.1552 60.636 77.8583 60.1188 78.5516 59.5816L77.8577 58.6965C77.1844 59.2239 76.5014 59.7313 75.7986 60.2236L76.4473 61.1432ZM59.974 68.9693L59.6709 67.8931C58.8511 68.121 58.0164 68.3439 57.192 68.537L57.4551 69.6329C58.2947 69.42 59.1342 69.2071 59.974 68.9693ZM80.5672 57.9149C81.2309 57.3427 81.8749 56.7554 82.4991 56.1531L81.7196 55.347C81.1006 55.9344 80.4767 56.5119 79.823 57.0792L80.5672 57.9149ZM54.8876 70.1719L54.6844 69.0714C53.8453 69.2346 53.0016 69.363 52.1579 69.4913L52.3162 70.6014C53.1699 70.4681 54.0336 70.33 54.8876 70.1719ZM84.3572 54.2913C84.9567 53.664 85.5415 53.0067 86.1163 52.3543L85.2614 51.6222C84.7066 52.2648 84.1269 52.9072 83.5474 53.5248L84.3572 54.2913ZM49.7063 70.9013L49.6079 69.7867C48.7547 69.8702 47.9017 69.9289 47.0539 69.9726L47.1073 71.0969C47.9652 71.0482 48.843 70.9898 49.7063 70.9013ZM87.7717 50.332C88.3069 49.6495 88.8324 48.947 89.343 48.2394L88.4275 47.5865C87.9369 48.2843 87.4266 48.967 86.8965 49.6346L87.7717 50.332ZM44.4847 71.168L44.4811 70.0441C43.6287 70.053 42.7765 70.0371 41.9145 70.0012L41.8683 71.1248C42.7403 71.1557 43.6174 71.1719 44.4847 71.168ZM90.8054 46.0765C91.2813 45.3488 91.7325 44.5961 92.1737 43.8483L91.2024 43.2845C90.7712 44.0274 90.3303 44.7504 89.8644 45.4732L90.8054 46.0765ZM39.2631 70.9523L39.364 69.8391C38.5075 69.7634 37.666 69.668 36.8197 69.5626L36.6689 70.6755C37.5301 70.786 38.3965 70.8816 39.2631 70.9523ZM93.428 41.5646C93.8345 40.7966 94.2212 40.0136 94.593 39.2255L93.566 38.7509C93.1993 39.5241 92.8278 40.2873 92.4313 41.0503L93.428 41.5646ZM34.0811 70.2595L34.2867 69.1569C33.4409 69.0018 32.6102 68.8269 31.7847 68.6371L31.5244 69.7293C32.3649 69.9242 33.2253 70.1092 34.0811 70.2595ZM95.6391 36.821C95.9663 36.0177 96.2885 35.2044 96.5809 34.3809L95.528 34.0055C95.2358 34.8041 94.9336 35.6076 94.6116 36.396L95.6391 36.821ZM28.9939 69.075L29.3089 67.9931C28.4887 67.7635 27.6688 67.5091 26.8641 67.2349L26.5044 68.3016C27.3241 68.5809 28.1589 68.8404 28.9939 69.075ZM97.4084 31.9102C97.671 31.0766 97.9087 30.2428 98.1166 29.3988L97.0229 29.1176C96.8052 29.9416 96.5726 30.7605 96.3252 31.5743L97.4084 31.9102ZM24.0411 67.4041L24.4604 66.3577C24.0434 66.1907 23.6264 66.0237 23.2045 65.8466L22.7554 66.8828C23.1873 67.055 23.6092 67.232 24.0411 67.4041ZM98.7254 26.8619C98.9035 26.0078 99.0667 25.1486 99.205 24.2893L98.0902 24.1173C97.9571 24.9618 97.7941 25.7961 97.6212 26.6353L98.7254 26.8619ZM99.5551 21.7058C99.6535 20.8412 99.7271 19.9764 99.7857 19.1066L98.6599 19.039C98.6064 19.894 98.5331 20.7339 98.4398 21.5836L99.5551 21.7058ZM99.8768 16.5014C99.8856 15.6312 99.8795 14.7559 99.8533 13.8904L98.7314 13.9322C98.7627 14.7828 98.769 15.6333 98.7654 16.4886L99.8768 16.5014Z" fill="#585149"/>
<path d="M103.914 17.5442L103.103 18.3243L99.2556 14.3437L95.5502 18.4701L94.7105 17.7183L99.2274 12.6875L103.914 17.5442Z" fill="#585149"/>
</g>
<defs>
<clipPath id="clip0_1207_395">
<rect width="116" height="50" fill="white" transform="matrix(-0.898222 0.439543 0.439543 0.898222 105.03 0.818115)"/>
</clipPath>
</defs>
</svg>
