<svg width="95" height="34" viewBox="0 0 95 34" fill="none" xmlns="http://www.w3.org/2000/svg">
<path d="M42.5489 34H43.1429L43.1317 32.8871H42.5489C41.8876 32.8871 41.215 32.8761 40.5537 32.8541L40.5089 33.9669C41.1926 33.989 41.8763 34 42.5489 34ZM45.777 33.9008C46.6513 33.8457 47.5256 33.7796 48.3999 33.6805L48.2766 32.5786C47.4247 32.6668 46.5729 32.7439 45.7098 32.788L45.777 33.9008ZM37.886 33.8017L37.9869 32.6888C37.135 32.6117 36.2719 32.5235 35.42 32.4134L35.2743 33.5152C36.1486 33.6364 37.0117 33.7356 37.886 33.8017ZM51.0004 33.3389C51.8634 33.1957 52.7265 33.0414 53.5896 32.8651L53.3542 31.7743C52.5136 31.9506 51.6729 32.1048 50.821 32.2371L51.0004 33.3389ZM32.6739 33.1295L32.8756 32.0387C32.035 31.8845 31.1831 31.7192 30.3536 31.5319L30.107 32.6227C30.9589 32.799 31.8108 32.9753 32.6739 33.1295ZM56.1452 32.2591C56.9971 32.0387 57.8378 31.7963 58.6672 31.5319L58.3198 30.4741C57.5015 30.7275 56.6833 30.9699 55.8426 31.1903L56.1452 32.2591ZM27.5514 31.9836L27.854 30.9149C27.0246 30.6945 26.2063 30.4411 25.3881 30.1876L25.0406 31.2454C25.8701 31.4988 26.7107 31.7523 27.5514 31.9836ZM61.1668 30.6835C61.9851 30.386 62.8033 30.0554 63.6103 29.7249L63.162 28.7002C62.3774 29.0307 61.5703 29.3502 60.7745 29.6477L61.1668 30.6835ZM22.5523 30.375L22.9558 29.3392C22.1487 29.0417 21.3529 28.7222 20.5683 28.3917L20.1199 29.4164C20.9158 29.7469 21.734 30.0775 22.5523 30.375ZM65.9978 28.6451C66.7825 28.2704 67.5671 27.8738 68.3405 27.4661L67.8025 26.4855C67.0515 26.8932 66.2893 27.2788 65.5159 27.6424L65.9978 28.6451ZM17.7212 28.3366L18.2144 27.3339C17.441 26.9703 16.6788 26.5846 15.9166 26.177L15.3786 27.1576C16.152 27.5653 16.9366 27.9619 17.7212 28.3366ZM70.6159 26.177C71.3669 25.7362 72.1067 25.2624 72.8352 24.7886L72.2075 23.8631C71.4902 24.3369 70.7728 24.7886 70.033 25.2294L70.6159 26.177ZM13.1032 25.8684L13.686 24.9209C12.9462 24.4801 12.2289 24.0284 11.5115 23.5656L10.8838 24.4911C11.6124 24.9649 12.3522 25.4277 13.1032 25.8684ZM74.9761 23.3012C75.6823 22.7943 76.3772 22.2654 77.061 21.7255L76.3436 20.8551C75.6711 21.384 74.9986 21.9018 74.3036 22.4087L74.9761 23.3012ZM8.73171 22.9927L9.40424 22.1002C8.70929 21.5933 8.03677 21.0755 7.37544 20.5466L6.65807 21.406C7.3306 21.9459 8.02555 22.4858 8.73171 22.9927ZM79.0674 20.0397C79.7175 19.4668 80.3676 18.8828 80.9953 18.2768L80.2107 17.4835C79.5942 18.0674 78.9665 18.6514 78.3276 19.2134L79.0674 20.0397ZM4.6629 19.7202L5.4251 18.8938C4.78619 18.3319 4.15849 17.7479 3.55321 17.1529L2.75739 17.9462C3.37387 18.5523 4.01278 19.1472 4.6629 19.7202ZM82.8336 16.4367C83.4388 15.8087 84.0217 15.1696 84.5821 14.5085L83.7191 13.7813C83.1586 14.4204 82.587 15.0484 82.0041 15.6654L82.8336 16.4367ZM0.930336 16.0731L1.771 15.3239C1.46837 14.9933 1.16573 14.6628 0.863091 14.3212L0 15.0484C0.31385 15.39 0.616493 15.7316 0.930336 16.0731ZM86.2523 12.5142C86.7903 11.8311 87.3171 11.1369 87.8215 10.4317L86.8912 9.79265C86.398 10.4868 85.8824 11.1589 85.3556 11.8311L86.2523 12.5142ZM89.2787 8.28314C89.7494 7.55593 90.1978 6.8177 90.6349 6.06845L89.6485 5.51753C89.2226 6.25576 88.7855 6.97195 88.3259 7.68815L89.2787 8.28314ZM91.8679 3.78765C92.2602 3.01636 92.6413 2.23406 93 1.45175L91.9688 1C91.6213 1.77129 91.2514 2.53155 90.8703 3.29182L91.8679 3.78765Z" fill="#585149"/>
<path d="M95 6.64368L93.9733 7L92.3369 1.55172L87.4064 3.70115L87 2.62069L93.0107 0L95 6.64368Z" fill="#585149"/>
</svg>
