<svg width="75" height="72" viewBox="0 0 75 72" fill="none" xmlns="http://www.w3.org/2000/svg">
<g filter="url(#filter0_d_801_2100)">
<path d="M42.7855 20H32.2145C29.7391 20 27.4528 21.3137 26.214 23.446L20.9275 32.554C19.6908 34.6863 19.6908 37.3137 20.9275 39.446L26.214 48.554C27.4507 50.6863 29.7391 52 32.2145 52H42.7855C45.2609 52 47.5472 50.6863 48.786 48.554L54.0725 39.446C55.3092 37.3137 55.3092 34.6863 54.0725 32.554L48.786 23.446C47.5472 21.3137 45.2609 20 42.7855 20Z" fill="#00B1AA"/>
</g>
<path d="M37.134 29.7C36.944 31.011 35.671 32.702 34.55 33.006V34.051C35.31 33.975 36.564 33.31 37.134 32.721V43H38.502V29.7H37.134Z" fill="white"/>
<defs>
<filter id="filter0_d_801_2100" x="0" y="0" width="75" height="72" filterUnits="userSpaceOnUse" color-interpolation-filters="sRGB">
<feFlood flood-opacity="0" result="BackgroundImageFix"/>
<feColorMatrix in="SourceAlpha" type="matrix" values="0 0 0 0 0 0 0 0 0 0 0 0 0 0 0 0 0 0 127 0" result="hardAlpha"/>
<feOffset/>
<feGaussianBlur stdDeviation="10"/>
<feColorMatrix type="matrix" values="0 0 0 0 0 0 0 0 0 0 0 0 0 0 0 0 0 0 0.1 0"/>
<feBlend mode="normal" in2="BackgroundImageFix" result="effect1_dropShadow_801_2100"/>
<feBlend mode="normal" in="SourceGraphic" in2="effect1_dropShadow_801_2100" result="shape"/>
</filter>
</defs>
</svg>
