<svg width="75" height="72" viewBox="0 0 75 72" fill="none" xmlns="http://www.w3.org/2000/svg">
<g filter="url(#filter0_d_801_2094)">
<path d="M42.7855 20H32.2145C29.7391 20 27.4528 21.3137 26.214 23.446L20.9275 32.554C19.6908 34.6863 19.6908 37.3137 20.9275 39.446L26.214 48.554C27.4507 50.6863 29.7391 52 32.2145 52H42.7855C45.2609 52 47.5472 50.6863 48.786 48.554L54.0725 39.446C55.3092 37.3137 55.3092 34.6863 54.0725 32.554L48.786 23.446C47.5472 21.3137 45.2609 20 42.7855 20Z" fill="#00B1AA"/>
</g>
<path d="M40.6931 41.632H34.9931C35.4111 40.359 36.1331 39.409 37.1781 38.345C38.7931 36.73 39.8951 35.457 40.2181 33.69C40.6741 31.087 39.1921 29.586 36.8931 29.586C34.6701 29.586 33.5871 31.429 33.3591 32.854L34.5751 33.139C34.9171 31.752 35.6581 30.916 36.8931 30.916C38.2611 30.916 39.1541 31.961 38.7171 33.709C38.4131 34.925 37.6531 35.875 36.2091 37.376C34.6511 39.01 33.3021 40.739 33.3021 43H40.6931V41.632Z" fill="white"/>
<defs>
<filter id="filter0_d_801_2094" x="0" y="0" width="75" height="72" filterUnits="userSpaceOnUse" color-interpolation-filters="sRGB">
<feFlood flood-opacity="0" result="BackgroundImageFix"/>
<feColorMatrix in="SourceAlpha" type="matrix" values="0 0 0 0 0 0 0 0 0 0 0 0 0 0 0 0 0 0 127 0" result="hardAlpha"/>
<feOffset/>
<feGaussianBlur stdDeviation="10"/>
<feColorMatrix type="matrix" values="0 0 0 0 0 0 0 0 0 0 0 0 0 0 0 0 0 0 0.1 0"/>
<feBlend mode="normal" in2="BackgroundImageFix" result="effect1_dropShadow_801_2094"/>
<feBlend mode="normal" in="SourceGraphic" in2="effect1_dropShadow_801_2094" result="shape"/>
</filter>
</defs>
</svg>
