<svg width="75" height="72" viewBox="0 0 75 72" fill="none" xmlns="http://www.w3.org/2000/svg">
<g filter="url(#filter0_d_801_2088)">
<path d="M42.7855 20H32.2145C29.7391 20 27.4528 21.3137 26.214 23.446L20.9275 32.554C19.6908 34.6863 19.6908 37.3137 20.9275 39.446L26.214 48.554C27.4507 50.6863 29.7391 52 32.2145 52H42.7855C45.2609 52 47.5472 50.6863 48.786 48.554L54.0725 39.446C55.3092 37.3137 55.3092 34.6863 54.0725 32.554L48.786 23.446C47.5472 21.3137 45.2609 20 42.7855 20Z" fill="#00B1AA"/>
</g>
<path d="M38.6932 35.742C39.7002 35.267 40.5172 34.07 40.5172 32.797C40.5172 31.049 39.2822 29.586 36.9642 29.586C35.1972 29.586 33.7722 30.65 33.3542 32.417L34.6082 32.664C34.9692 31.486 35.7102 30.897 36.9642 30.897C38.2752 30.897 39.1682 31.543 39.1682 32.873C39.1682 34.051 38.2942 35.191 36.9072 35.191C36.4702 35.191 36.1662 35.191 35.7862 35.191V36.464C36.1852 36.464 36.4132 36.464 36.8502 36.464C38.6742 36.464 39.6622 37.623 39.6622 39.2C39.6622 40.701 38.6362 41.841 36.9262 41.841C35.7672 41.841 34.8362 41.252 34.3992 40.454L33.1072 41.1C33.7912 42.335 35.3492 43.133 36.9262 43.133C39.5482 43.133 41.0872 41.328 41.0872 39.162C41.0872 37.623 40.1562 36.198 38.6932 35.742Z" fill="white"/>
<defs>
<filter id="filter0_d_801_2088" x="0" y="0" width="75" height="72" filterUnits="userSpaceOnUse" color-interpolation-filters="sRGB">
<feFlood flood-opacity="0" result="BackgroundImageFix"/>
<feColorMatrix in="SourceAlpha" type="matrix" values="0 0 0 0 0 0 0 0 0 0 0 0 0 0 0 0 0 0 127 0" result="hardAlpha"/>
<feOffset/>
<feGaussianBlur stdDeviation="10"/>
<feColorMatrix type="matrix" values="0 0 0 0 0 0 0 0 0 0 0 0 0 0 0 0 0 0 0.1 0"/>
<feBlend mode="normal" in2="BackgroundImageFix" result="effect1_dropShadow_801_2088"/>
<feBlend mode="normal" in="SourceGraphic" in2="effect1_dropShadow_801_2088" result="shape"/>
</filter>
</defs>
</svg>
