<svg width="48" height="51" viewBox="0 0 48 51" fill="none" xmlns="http://www.w3.org/2000/svg">
<path d="M48 30.1179C48 37.0773 48 44.038 48 51C32.0025 51 16.0063 51 0 51C0 34.0066 0 17.012 0 0C15.9937 0 31.9975 0 48 0C48 4.95922 48 9.93039 48 14.9016C47.89 14.5602 47.8037 14.2083 47.6675 13.8789C46.95 12.1577 45.225 11.232 43.4712 11.6145C41.7987 11.9784 40.5375 13.5708 40.5212 15.4116C40.4987 17.9137 40.515 20.4159 40.5137 22.9195C40.5137 23.0934 40.5137 23.2674 40.5137 23.4454C39.3287 23.4998 38.4087 23.9873 37.6475 24.8505C37.2325 25.322 36.7775 25.755 36.3612 26.2265C34.6675 28.1443 32.4925 29.0514 30.1237 29.414C26.9937 29.8934 24.9812 32.2256 24.9787 35.5778C24.9762 39.7375 24.9775 43.8972 24.9787 48.0569C24.9787 48.9693 25.305 49.312 26.17 49.312C29.305 49.3133 32.4388 49.3133 35.5737 49.312C36.4437 49.312 36.7687 48.972 36.77 48.0609C36.7725 46.5202 36.78 44.9783 36.7637 43.4377C36.76 43.099 36.8437 42.9077 37.1462 42.7563C38.0337 42.3141 38.91 41.8426 39.78 41.3605C40.3187 41.063 40.49 40.4945 40.2337 39.9819C39.9875 39.4905 39.47 39.3152 38.945 39.5888C37.785 40.1931 36.635 40.8199 35.4775 41.4322C35.0688 41.6487 34.895 41.9953 34.8975 42.4734C34.9037 43.8985 34.9 45.3236 34.9 46.7487C34.9 46.9253 34.9 47.102 34.9 47.2879C32.1925 47.2879 29.5362 47.2879 26.8512 47.2879C26.8512 47.1086 26.8512 46.9612 26.8512 46.8151C26.8512 43.0366 26.8475 39.258 26.8525 35.4795C26.855 33.2483 28.2275 31.7249 30.3088 31.3955C33.0737 30.9586 35.6 29.9054 37.6012 27.714C38.09 27.1788 38.5887 26.6541 39.09 26.1322C39.9362 25.2516 41.0775 25.2131 41.84 26.0326C42.605 26.8547 42.5625 28.058 41.7275 28.9558C40.9275 29.8164 40.1187 30.6677 39.3137 31.523C38.575 32.308 37.8287 33.0863 37.1 33.8818C36.595 34.433 36.6912 35.19 37.2825 35.5101C37.6837 35.7279 38.09 35.6283 38.4975 35.1953C40.01 33.5923 41.5238 31.9892 43.03 30.3795C44.83 28.4551 44.6425 25.7802 42.61 24.128C42.4975 24.0364 42.3963 23.8412 42.395 23.6937C42.3825 20.9432 42.3787 18.1913 42.3913 15.4408C42.395 14.5921 42.9287 13.8683 43.6725 13.6093C44.9088 13.179 46.1225 14.1352 46.125 15.5696C46.1338 19.7452 46.1012 23.9222 46.1387 28.0978C46.1575 30.2414 45.85 32.2801 44.905 34.1939C44.6225 34.7677 44.8063 35.3361 45.2938 35.5911C45.78 35.8448 46.3175 35.6562 46.57 35.0598C46.9212 34.2324 47.2637 33.3944 47.515 32.5284C47.7437 31.7475 47.8438 30.9241 48 30.1179ZM7.5725 23.4467C7.5725 23.2462 7.5725 23.0669 7.5725 22.8889C7.57125 20.4027 7.59 17.9164 7.565 15.4302C7.5425 13.2188 5.8275 11.487 3.75 11.5228C1.7125 11.5587 0.0937499 13.3211 0.0887499 15.5484C0.0787499 19.9737 0.0449996 24.4003 0.0962496 28.8243C0.1575 34.2178 2.49125 38.1663 6.99 40.6605C8.2875 41.3791 9.60125 42.067 10.92 42.7417C11.2362 42.9038 11.33 43.0963 11.325 43.4589C11.305 45.0327 11.3125 46.6079 11.3187 48.183C11.3212 48.9082 11.68 49.308 12.3475 49.3093C15.5913 49.3159 18.8363 49.3159 22.08 49.3093C22.7288 49.308 23.105 48.9148 23.1063 48.2309C23.11 43.8547 23.1362 39.4785 23.0925 35.1037C23.065 32.2867 21.0225 29.9147 18.3975 29.5083C15.6037 29.0753 13.1075 28.0141 11.2112 25.678C11.0187 25.4402 10.785 25.2397 10.5862 25.0059C9.78875 24.067 8.83125 23.4799 7.5725 23.4467ZM24.0375 5.04156C23.8625 4.81312 23.7062 4.61125 23.5537 4.40805C20.2812 0.049141 14.2725 1.03594 11.8675 5.08406C10.2975 7.7257 9.895 10.5493 10.72 13.5535C11.3337 15.7901 12.5913 17.6136 14.07 19.2791C16.9463 22.517 20.2725 25.2237 23.4087 28.1562C23.8362 28.556 24.2712 28.5388 24.7175 28.1244C27.3612 25.6753 30.025 23.2475 32.6275 20.7493C34.1925 19.2472 35.6188 17.587 36.5863 15.5643C38.3538 11.8708 38.2262 8.25164 36.0225 4.80117C33.6312 1.05719 27.9662 0.225781 24.8088 4.07734C24.555 4.38547 24.31 4.70023 24.0375 5.04156ZM43.03 37.1822C42.5312 37.1888 42.115 37.6298 42.1087 38.1597C42.1012 38.7095 42.535 39.1704 43.0513 39.1637C43.5675 39.1571 43.9925 38.683 43.9725 38.1358C43.9538 37.6085 43.5275 37.1769 43.03 37.1822Z" fill="white"/>
<path d="M47.9988 29.6937C47.8427 30.5045 47.7428 31.3326 47.5155 32.1194C47.2645 32.9889 46.9223 33.8331 46.5714 34.6653C46.3192 35.265 45.7822 35.456 45.2964 35.1996C44.8094 34.9431 44.6246 34.3714 44.9081 33.7944C45.8521 31.8696 46.1593 29.8192 46.1406 27.6634C46.1031 23.4638 46.1343 19.263 46.1268 15.0634C46.1244 13.6208 44.9118 12.6591 43.6768 13.0919C42.9325 13.3523 42.4005 14.0803 42.3968 14.9338C42.3843 17.7001 42.388 20.4678 42.4005 23.2341C42.4018 23.3823 42.5029 23.5787 42.6153 23.6709C44.6458 25.3312 44.8331 28.0227 43.0349 29.9582C41.5301 31.5771 40.0179 33.1893 38.5069 34.8015C38.0998 35.2356 37.6939 35.3358 37.2931 35.1181C36.7011 34.7962 36.6062 34.0348 37.1107 33.4805C37.8388 32.6804 38.5843 31.8976 39.3223 31.1082C40.1265 30.248 40.9345 29.3905 41.7337 28.5262C42.5679 27.6233 42.6103 26.4131 41.8461 25.5863C41.0843 24.7622 39.9442 24.8009 39.0988 25.6865C38.598 26.2114 38.0998 26.739 37.6115 27.2773C35.6135 29.4813 33.0885 30.5392 30.3262 30.98C28.247 31.3112 26.8758 32.8433 26.8733 35.0874C26.8683 38.8875 26.8721 42.6877 26.8721 46.4878C26.8721 46.6361 26.8721 46.783 26.8721 46.9633C29.5545 46.9633 32.2081 46.9633 34.9129 46.9633C34.9129 46.7763 34.9129 46.5987 34.9129 46.421C34.9129 44.9878 34.9167 43.5546 34.9104 42.1213C34.9079 41.6405 35.0815 41.2918 35.4898 41.0741C36.645 40.4583 37.7938 39.8279 38.9539 39.2201C39.4784 38.9449 39.9954 39.1199 40.2414 39.6155C40.4987 40.1311 40.3276 40.7014 39.7881 41.002C38.919 41.4855 38.0436 41.9597 37.1569 42.4058C36.8547 42.5581 36.7711 42.7504 36.7748 43.0911C36.7911 44.6405 36.7836 46.1913 36.7811 47.7407C36.7798 48.6571 36.4551 48.999 35.586 48.999C32.4541 49.0003 29.3234 49.0003 26.1915 48.999C25.3274 48.999 25.0027 48.653 25.0014 47.7367C25.0002 43.5532 24.9989 39.3697 25.0014 35.1862C25.0039 31.8148 27.0145 29.4693 30.1414 28.9871C32.5078 28.6211 34.6806 27.7101 36.3727 25.7813C36.7886 25.3071 37.2419 24.8717 37.6577 24.3975C38.4182 23.5293 39.3373 23.0391 40.5211 22.9843C40.5211 22.8053 40.5211 22.6303 40.5211 22.4553C40.5224 19.9388 40.5061 17.421 40.5286 14.9045C40.5449 13.0531 41.8049 11.4529 43.4757 11.0856C45.2265 10.7023 46.9498 11.6319 47.6678 13.363C47.8052 13.693 47.8914 14.0483 48 14.3915C47.9988 19.4914 47.9988 24.5925 47.9988 29.6937Z" fill="black"/>
<path d="M7.48889 22.9916C8.74624 23.0236 9.70174 23.6152 10.4951 24.5581C10.6922 24.7931 10.9254 24.9947 11.1188 25.2338C13.011 27.5828 15.5008 28.6512 18.2899 29.0852C20.9094 29.4939 22.9476 31.879 22.9751 34.7115C23.0187 39.1105 22.9925 43.5108 22.9888 47.9111C22.9888 48.5989 22.6121 48.9941 21.9647 48.9955C18.7278 49.0008 15.4896 49.0022 12.2526 48.9955C11.5865 48.9941 11.2298 48.5922 11.226 47.863C11.2198 46.2792 11.2123 44.6967 11.2323 43.1128C11.2373 42.7482 11.145 42.5533 10.8281 42.3917C9.51213 41.7133 8.20114 41.0228 6.90636 40.299C2.41705 37.7924 0.0881968 33.8207 0.0270753 28.3975C-0.0228198 23.9478 0.00961134 19.498 0.0195904 15.0483C0.0245799 12.8088 1.63993 11.0353 3.67316 11.0005C5.7463 10.9645 7.4577 12.7073 7.48016 14.9294C7.5051 17.4294 7.48764 19.9294 7.48764 22.4293C7.48889 22.611 7.48889 22.7899 7.48889 22.9916ZM13.0921 46.9643C15.7989 46.9643 18.4496 46.9643 21.114 46.9643C21.114 42.831 21.1502 38.7339 21.0978 34.6367C21.0753 32.8712 19.7631 31.4236 18.1265 31.0777C17.3344 30.9108 16.5411 30.7332 15.769 30.4875C13.8019 29.8611 11.9233 29.0518 10.4813 27.3812C9.9325 26.7455 9.35871 26.1299 8.75996 25.5503C7.65354 24.4793 5.97332 25.0602 5.66273 26.6093C5.50805 27.3799 5.77749 28.0062 6.28642 28.547C7.81944 30.1803 9.34873 31.8176 10.873 33.4615C11.3246 33.9476 11.3358 34.5499 10.9304 34.9639C10.5487 35.3538 9.98614 35.3258 9.55704 34.8691C7.98035 33.1877 6.39369 31.5171 4.8407 29.8104C3.19541 28.0022 3.43865 25.2338 5.32718 23.7287C5.47188 23.6139 5.60659 23.3682 5.60784 23.1825C5.62531 20.4662 5.62655 17.7513 5.61657 15.0349C5.61158 13.8678 4.77958 12.9904 3.72929 13.0024C2.70145 13.0144 1.89066 13.8905 1.88816 15.0349C1.88193 19.6329 1.81332 24.2335 1.91062 28.8302C1.99918 33.0248 3.85278 36.2005 7.28307 38.2438C8.89718 39.2053 10.5737 40.0506 12.2377 40.9107C12.8464 41.2245 13.122 41.6465 13.1021 42.3877C13.0647 43.8981 13.0921 45.4138 13.0921 46.9643Z" fill="black"/>
<path d="M23.9839 5.4952C24.2613 5.1524 24.512 4.83629 24.769 4.52684C27.9836 0.658741 33.7522 1.49372 36.1854 5.25377C38.429 8.71905 38.5588 12.3537 36.7593 16.0631C35.7744 18.0945 34.3223 19.7618 32.7291 21.2704C30.0795 23.7793 27.3689 26.2175 24.6761 28.6771C24.2206 29.0933 23.7777 29.1106 23.3437 28.7091C20.1508 25.7654 16.7645 23.047 13.8363 19.7938C12.3308 18.1225 11.0506 16.2899 10.4257 14.0437C9.58582 11.0266 9.99559 8.19219 11.594 5.53788C14.0424 1.47238 20.1597 0.481342 23.4914 4.85896C23.6466 5.06304 23.8057 5.26578 23.9839 5.4952ZM23.9699 26.6443C24.0717 26.571 24.1277 26.5403 24.1735 26.4976C26.5392 24.3288 28.9266 22.1867 31.2592 19.9792C32.6985 18.6174 34.0322 17.1328 34.9675 15.3255C36.4234 12.5138 36.5366 9.66874 34.9332 6.88238C33.2037 3.8746 29.3873 3.08764 26.8841 5.17241C26.0378 5.878 25.4333 6.78901 24.8963 7.76137C24.4051 8.65103 23.5919 8.63502 23.0714 7.7627C22.7189 7.17182 22.36 6.57826 21.9375 6.04206C19.5183 2.96893 15.7324 3.79057 13.9597 5.67926C12.3919 7.35055 11.7887 9.38997 11.9337 11.6922C12.0597 13.6902 12.878 15.3949 14.0322 16.9474C15.5746 19.0202 17.4491 20.7435 19.3287 22.4615C20.8597 23.8566 22.4071 25.2358 23.9699 26.6443Z" fill="black"/>
<path d="M42.987 37.0001C43.5207 36.9934 43.9792 37.4287 43.9994 37.9632C44.0195 38.515 43.5636 38.9932 43.0111 38.9999C42.4573 39.0066 41.9921 38.5405 42.0001 37.9873C42.0055 37.4515 42.4506 37.0068 42.987 37.0001Z" fill="black"/>
<path d="M13.0762 47C13.0762 45.4479 13.0491 43.9306 13.0872 42.416C13.1057 41.674 12.8338 41.2529 12.2348 40.9374C10.5927 40.0765 8.94066 39.2303 7.34895 38.2678C3.96625 36.2224 2.13959 33.0447 2.05103 28.8444C1.95508 24.243 2.02273 19.6375 2.02888 15.0348C2.03011 13.8891 2.83089 13.0122 3.84447 13.0001C4.88142 12.9881 5.70188 13.8651 5.70557 15.0348C5.71541 17.7539 5.71418 20.4717 5.69696 23.1909C5.69573 23.3767 5.56165 23.6227 5.4202 23.7376C3.55787 25.2456 3.318 28.0169 4.94047 29.8256C6.47191 31.5341 8.03656 33.2065 9.59137 34.8896C10.0145 35.3468 10.5693 35.3748 10.9457 34.9845C11.3455 34.5714 11.3344 33.9685 10.8891 33.4805C9.38595 31.8362 7.87788 30.1959 6.36612 28.561C5.86425 28.0195 5.59979 27.3926 5.75108 26.6212C6.05614 25.0705 7.71428 24.4889 8.80536 25.5611C9.39702 26.1426 9.96162 26.7576 10.5029 27.3939C11.9236 29.0663 13.7773 29.8764 15.7171 30.5034C16.4786 30.7494 17.2621 30.9272 18.042 31.0943C19.6546 31.4405 20.9486 32.8896 20.972 34.6569C21.0237 38.757 20.988 42.8598 20.988 46.9973C18.3593 47 15.7454 47 13.0762 47Z" fill="white"/>
<path d="M23.9635 26C22.4128 24.6319 20.8771 23.2937 19.3592 21.9347C17.4952 20.266 15.6338 18.5935 14.1032 16.579C12.9578 15.071 12.1458 13.4153 12.0207 11.4746C11.8768 9.23853 12.4754 7.25768 14.0312 5.63439C15.7891 3.79993 19.5474 3.00318 21.948 5.98677C22.366 6.50757 22.7234 7.08408 23.0732 7.65799C23.5897 8.50526 24.3967 8.52081 24.8842 7.6567C25.4158 6.71356 26.0157 5.82742 26.8568 5.14209C29.3408 3.11719 33.1281 3.88154 34.8443 6.80295C36.4355 9.51059 36.3231 12.2726 34.8784 15.0036C33.9502 16.759 32.6267 18.201 31.1984 19.5237C28.8836 21.6678 26.5145 23.7484 24.1669 25.8549C24.1189 25.8977 24.0633 25.9287 23.9635 26Z" fill="white"/>
</svg>
