<svg width="49" height="49" viewBox="0 0 49 49" fill="none" xmlns="http://www.w3.org/2000/svg">
<path d="M25.8845 0C33.5892 0 41.294 0 49 0C49 16.3333 49 32.6667 49 49C32.6667 49 16.3333 49 0 49C0 41.3272 0 33.653 0 25.9802C0.029349 26.1346 0.0638019 26.289 0.0854946 26.4447C0.224583 27.4362 0.304974 28.4391 0.507865 29.4179C3.27305 42.7295 16.355 51.2254 29.6361 48.3479C43.462 45.3531 51.8966 31.2196 47.9473 17.663C47.3616 15.6532 46.5449 13.7455 45.4705 11.9476C45.1106 11.3453 44.5874 11.1564 44.0834 11.441C43.5781 11.7268 43.4735 12.2857 43.8116 12.8893C43.8422 12.9442 43.8767 12.999 43.9086 13.0539C46.2527 17.1258 47.285 21.5039 46.915 26.192C46.4517 32.0478 44.04 36.9746 39.7666 40.9954C39.667 41.0898 39.5547 41.1702 39.4692 41.2404C37.3638 34.1724 32.816 30.0253 25.3894 29.2507C17.0301 29.1958 11.8863 33.4195 9.40826 41.2187C9.41591 41.2225 9.38401 41.2136 9.36104 41.1932C9.27682 41.1204 9.1926 41.0477 9.11221 40.9699C2.79708 34.804 0.535937 27.3634 2.65927 18.8305C5.65414 6.8013 17.8442 -0.370052 29.8926 2.56612C32.9321 3.3075 35.6794 4.6601 38.1677 6.55247C38.6947 6.95315 39.2676 6.90466 39.6083 6.46826C39.9733 6.0025 39.8597 5.44742 39.3072 5.02633C36.1528 2.61971 32.6309 1.04508 28.716 0.378984C27.7782 0.219479 26.8288 0.125052 25.8845 0ZM33.0482 18.7502C33.0597 14.0084 29.2137 10.1356 24.4821 10.1241C19.7404 10.1126 15.8676 13.9586 15.8561 18.6902C15.8446 23.432 19.6919 27.3047 24.4222 27.3162C29.1614 27.329 33.0354 23.4817 33.0482 18.7502ZM42.0303 7.83617C41.5211 7.83362 41.0898 8.25089 41.0758 8.76003C41.0605 9.28703 41.4956 9.73747 42.0239 9.74003C42.5509 9.74258 42.9911 9.29469 42.9796 8.76768C42.9669 8.25854 42.5394 7.83745 42.0303 7.83617Z" fill="white"/>
<path d="M25.9269 0C26.8726 0.125286 27.8235 0.21989 28.7629 0.379694C32.6853 1.04703 36.2115 2.62462 39.3709 5.03574C39.9243 5.45762 40.0367 6.01373 39.6725 6.48036C39.33 6.91758 38.7561 6.96616 38.2295 6.56474C35.7373 4.66883 32.9856 3.31369 29.9413 2.57092C17.8725 -0.369466 5.66312 6.81531 2.66349 18.8671C0.535511 27.4146 2.80152 34.8692 9.12668 41.0478C9.20592 41.1258 9.29155 41.1987 9.3759 41.2716C9.39891 41.292 9.43086 41.301 9.42319 41.2971C11.9052 33.4834 17.0584 29.253 25.4297 29.3067C32.8681 30.0815 37.4231 34.2364 39.5319 41.3189C39.6175 41.2485 39.73 41.168 39.8297 41.0734C44.1112 37.0451 46.5255 32.109 46.9894 26.2423C47.3613 21.5454 46.3261 17.1604 43.9783 13.0796C43.9463 13.0246 43.9131 12.9709 43.8812 12.9147C43.5412 12.3087 43.646 11.7488 44.1534 11.4637C44.6582 11.1786 45.1822 11.3678 45.5427 11.9712C46.6175 13.7712 47.4367 15.6838 48.0234 17.6973C51.979 31.2781 43.531 45.4392 29.6831 48.4397C16.381 51.32 3.27952 42.8095 0.508671 29.4729C0.305459 28.4936 0.22494 27.4875 0.0856308 26.4942C0.0639036 26.3382 0.0293956 26.1835 0 26.0288C0 25.0086 0 23.9872 0 22.967C0.155924 21.8816 0.272229 20.7885 0.474163 19.7121C2.30436 9.94107 10.4239 1.99435 20.2229 0.375858C21.1316 0.226282 22.0479 0.124008 22.9605 0C23.9497 0 24.9377 0 25.9269 0ZM24.429 47.0871C29.1655 47.0475 33.4227 45.7461 37.2799 43.1317C37.6774 42.8632 37.7605 42.5998 37.6761 42.1562C36.2255 34.5202 28.7859 29.6647 21.2581 31.6105C15.7841 33.027 12.5008 36.6718 11.3032 42.1984C11.2176 42.5922 11.2879 42.8427 11.6636 43.0997C15.5439 45.7473 19.8292 47.0513 24.429 47.0871Z" fill="black"/>
<path d="M23 0C22.0858 0.124186 21.1678 0.226607 20.2575 0.376399C10.4412 1.99722 2.30717 9.95536 0.475005 19.7404C0.272712 20.8184 0.156201 21.9131 0 23C0 15.3414 0 7.68288 0 0C7.66667 0 15.3333 0 23 0Z" fill="white"/>
<path d="M33 18.5284C32.9886 23.2071 29.1579 27.0113 24.4703 27C19.7917 26.9886 15.9887 23.1579 16 18.4703C16.0114 13.7929 19.8409 9.98993 24.5297 10C29.2083 10.0114 33.0113 13.8409 33 18.5284ZM24.4994 25.1111C28.1358 25.1111 31.106 22.1446 31.1098 18.5107C31.1136 14.8717 28.1535 11.8977 24.5221 11.8889C20.8617 11.8813 17.8839 14.8528 17.8889 18.512C17.8927 22.1459 20.8642 25.1111 24.4994 25.1111Z" fill="black"/>
<path d="M42.0041 8.00001C42.5388 8.00269 42.9877 8.44371 42.9998 8.97856C43.0118 9.53217 42.5495 10.0013 41.9961 10C41.4426 9.99732 40.9843 9.52413 41.0004 8.97051C41.0165 8.43567 41.4694 7.99733 42.0041 8.00001Z" fill="black"/>
<path d="M23.9417 47C19.4177 46.964 15.2016 45.6524 11.3866 42.9893C11.017 42.7321 10.9479 42.4801 11.0321 42.0828C12.2099 36.5239 15.438 32.8578 20.823 31.4331C28.2268 29.4747 35.5439 34.3585 36.9706 42.0403C37.0536 42.4865 36.9719 42.7514 36.581 43.0215C32.7873 45.6524 28.6014 46.9601 23.9417 47Z" fill="white"/>
<path d="M24.5012 25C20.9256 25 18.005 22.0847 18 18.5118C17.9963 14.9141 20.9231 11.9926 24.5223 12C28.0943 12.0075 31.005 14.9327 31 18.5106C30.9975 22.0834 28.0769 25 24.5012 25Z" fill="white"/>
</svg>
