<svg width="50" height="52" viewBox="0 0 50 52" fill="none" xmlns="http://www.w3.org/2000/svg">
<path d="M50 35.7811C50 41.187 50 46.5928 50 52C33.3333 52 16.6667 52 0 52C0 34.6667 0 17.3333 0 0C16.6667 0 33.3333 0 50 0C50 11.1841 50 22.3681 50 33.5522C49.9701 33.4222 49.9284 33.2935 49.9102 33.1622C49.1784 27.9365 46.4622 24.3222 41.7708 22.314C41.3854 22.1488 40.9831 22.0309 40.5729 21.886C40.6458 21.6572 40.7031 21.4662 40.7669 21.278C42.5638 15.8871 41.1667 10.5016 36.9909 6.91438C34.3633 4.65698 31.3685 3.58719 27.9401 4.16813C25.3906 4.6001 23.1849 5.81479 21.2344 7.54406C20.875 7.86365 20.6042 7.94896 20.2461 7.56573C20.0221 7.32604 19.7448 7.13646 19.4818 6.93875C17.4375 5.40177 15.2201 4.25615 12.6693 4.06521C8.58333 3.76052 5.39193 5.60354 2.77083 8.71406C2.65885 8.84677 2.57552 9.02958 2.53776 9.20292C2.4401 9.65927 2.65885 10.1048 3.04557 10.3039C3.45703 10.5165 3.86198 10.4149 4.23828 10.0371C4.89063 9.38167 5.5013 8.66531 6.22135 8.10063C8.34896 6.43229 10.7318 5.66583 13.4023 6.20479C15.5404 6.63677 17.3711 7.735 19.0443 9.1474C20.2513 10.1671 21.2266 10.1197 22.4557 9.12708C23.2982 8.44729 24.181 7.79594 25.1185 7.27594C27.1224 6.16552 29.2643 5.70917 31.5208 6.25625C37.8711 7.79594 41.3346 15.0312 38.7148 21.2388C38.6029 21.5028 38.4661 21.5136 38.2344 21.5177C37.3424 21.5353 36.4375 21.492 35.5638 21.6382C29.0417 22.7351 24.5508 28.493 24.8164 35.3424C24.8242 35.536 24.707 35.7947 24.5651 35.926C23.9089 36.53 23.2266 37.1028 22.5469 37.681C21.3646 38.6858 20.0924 38.6818 18.9167 37.677C17.5495 36.5083 16.1589 35.3668 14.8177 34.167C11.8542 31.5115 8.88151 28.8641 5.97656 26.1408C3.7513 24.0554 2.5026 21.3836 2.04557 18.3083C1.95052 17.6651 1.47656 17.2954 0.91927 17.3943C0.358073 17.4931 -0.0117188 18.0009 0.130208 18.6306C0.391927 19.7939 0.64974 20.9652 1.02995 22.0878C1.9401 24.7785 3.68229 26.8816 5.71484 28.7043C9.67318 32.2549 13.6797 35.7486 17.6875 39.2397C19.6003 40.9053 21.9049 40.866 23.8216 39.2153C24.2682 38.8307 24.7161 38.4461 25.1966 38.0331C25.2539 38.2146 25.2969 38.3378 25.3333 38.4638C26.944 44.0307 31.7122 47.7858 37.2904 47.8806C42.6862 47.9727 47.6055 44.3124 49.3281 38.87C49.6432 37.876 49.7799 36.8144 50 35.7811ZM2.25911 13.7773C2.27083 13.2085 1.875 12.7711 1.33594 12.7549C0.776042 12.7373 0.329427 13.1788 0.326823 13.7516C0.325521 14.2878 0.768229 14.7564 1.28516 14.7645C1.80469 14.774 2.2487 14.323 2.25911 13.7773Z" fill="white"/>
<path d="M50 35.8576C49.7795 36.8939 49.6425 37.9587 49.3242 38.961C47.5982 44.4196 42.6693 48.0893 37.263 47.9983C31.674 47.9033 26.8952 44.1357 25.2827 38.5536C25.2462 38.4273 25.2044 38.3037 25.1457 38.1217C24.6656 38.5346 24.2168 38.9203 23.768 39.3074C21.8476 40.9616 19.5385 41.001 17.622 39.3318C13.6064 35.8318 9.59205 32.3264 5.62601 28.7652C3.5895 26.9371 1.84392 24.8279 0.931989 22.1292C0.55104 21.0019 0.291421 19.8271 0.0304975 18.6617C-0.111706 18.0288 0.258806 17.5209 0.821097 17.4217C1.38078 17.3226 1.85435 17.6934 1.94959 18.3385C2.40751 21.4229 3.65864 24.1026 5.88823 26.1942C8.80014 28.9255 11.7773 31.5807 14.7466 34.2441C16.0904 35.4488 17.4824 36.5937 18.8535 37.7645C20.0316 38.7723 21.3062 38.7763 22.4908 37.7686C23.1705 37.19 23.8554 36.6141 24.513 36.0084C24.6552 35.8766 24.7726 35.6172 24.7648 35.423C24.4986 28.5533 28.9982 22.7784 35.5331 21.6782C36.4085 21.5302 37.3152 21.575 38.2089 21.5574C38.4424 21.5533 38.5794 21.5424 38.6903 21.2776C41.3152 15.0531 37.8462 7.79497 31.4822 6.25073C29.2213 5.70202 27.0765 6.15973 25.0674 7.27343C24.1268 7.79497 23.2423 8.44826 22.3995 9.13006C21.1692 10.1256 20.1921 10.1718 18.9814 9.15043C17.305 7.73386 15.4707 6.63237 13.3285 6.19912C10.6527 5.65856 8.26395 6.42865 6.1335 8.10056C5.41205 8.66692 4.80018 9.38404 4.14657 10.0428C3.77084 10.4217 3.3651 10.5236 2.95154 10.3103C2.56407 10.1107 2.34489 9.66382 2.44274 9.20612C2.48057 9.03227 2.56407 8.84892 2.67626 8.71582C5.30246 5.59609 8.50008 3.74761 12.594 4.0532C15.151 4.2447 17.3715 5.39236 19.4197 6.93525C19.6833 7.13354 19.9612 7.32233 20.1856 7.56408C20.543 7.94709 20.8144 7.86152 21.1758 7.54235C23.1301 5.80796 25.3388 4.59104 27.8945 4.15642C31.3296 3.57376 34.3302 4.64672 36.9629 6.9108C41.1469 10.5073 42.5467 15.9087 40.7463 21.317C40.6837 21.5058 40.625 21.6973 40.552 21.9268C40.9629 22.0721 41.366 22.1903 41.7522 22.356C46.4527 24.3715 49.1755 27.9965 49.9074 33.2363C49.9256 33.3681 49.9674 33.4971 49.9974 33.6275C50 34.3663 50 35.112 50 35.8576ZM26.706 34.7833C26.7295 40.9684 31.5175 45.9815 37.3856 45.9652C43.2956 45.9475 48.0666 40.9141 48.047 34.7154C48.0274 28.5316 43.2029 23.524 37.2943 23.5566C31.4535 23.5892 26.6826 28.6484 26.706 34.7833Z" fill="black"/>
<path d="M1.99974 14.0177C1.98896 14.562 1.52945 15.0093 0.991785 14.9999C0.456816 14.9904 -0.00134456 14.5243 2.96498e-06 13.9921C0.00269802 13.4222 0.464901 12.983 1.04434 13.0005C1.60356 13.0167 2.01186 13.4518 1.99974 14.0177Z" fill="black"/>
<path d="M27.0001 35.0221C26.977 28.9977 31.6727 24.0322 37.4198 24.0002C43.2323 23.9682 47.9807 28.8844 47.9999 34.9554C48.0192 41.041 43.3247 45.984 37.5096 46C31.7343 46.0173 27.0219 41.0957 27.0001 35.0221ZM34.2234 31.5779C33.7574 31.5779 33.3595 31.5739 32.9628 31.5792C31.6791 31.5952 30.8024 32.4979 30.7805 33.838C30.769 34.586 30.7728 35.3341 30.7793 36.0821C30.7921 37.5129 31.647 38.4089 33.027 38.4369C33.407 38.4449 33.7869 38.4382 34.2247 38.4382C34.2247 38.9076 34.2183 39.3196 34.226 39.7316C34.2529 41.125 35.1284 42.0344 36.4634 42.0504C37.1515 42.0584 37.8396 42.0584 38.5276 42.0504C39.8819 42.0344 40.7728 41.1024 40.7869 39.693C40.7907 39.2836 40.7869 38.8743 40.7869 38.4342C41.2721 38.4342 41.688 38.4529 42.1027 38.4302C43.362 38.3649 44.2131 37.4555 44.2362 36.1474C44.2503 35.3661 44.2541 34.5847 44.2336 33.8033C44.1989 32.5046 43.3004 31.5952 42.0552 31.5765C41.6444 31.5699 41.2349 31.5752 40.7869 31.5752C40.7869 31.0819 40.7933 30.6525 40.7856 30.2231C40.7599 28.9191 39.887 27.9977 38.638 27.9697C37.9179 27.9537 37.1977 27.959 36.4776 27.967C35.0963 27.9804 34.2478 28.8644 34.226 30.3058C34.2183 30.7192 34.2234 31.1285 34.2234 31.5779Z" fill="white"/>
<path d="M34.5862 31.5906C34.5862 31.1444 34.5809 30.7365 34.5876 30.3299C34.6102 28.8984 35.4918 28.0204 36.927 28.0072C37.6752 28.0006 38.4235 27.9939 39.1717 28.0098C40.4695 28.0376 41.3765 28.954 41.4031 30.2478C41.4111 30.6742 41.4045 31.1007 41.4045 31.5906C41.87 31.5906 42.2954 31.5853 42.7222 31.592C44.016 31.6105 44.951 32.5136 44.9856 33.8035C45.007 34.5795 45.0016 35.3555 44.9883 36.1315C44.9643 37.4306 44.08 38.3338 42.7716 38.3987C42.3408 38.4199 41.91 38.4026 41.4045 38.4026C41.4045 38.841 41.4085 39.2462 41.4045 39.6527C41.3911 41.0525 40.4655 41.9781 39.057 41.994C38.3421 42.002 37.6272 42.002 36.9123 41.994C35.5252 41.9781 34.6156 41.075 34.5876 39.6912C34.5795 39.282 34.5862 38.8741 34.5862 38.4066C34.1314 38.4066 33.7366 38.4132 33.3418 38.4053C31.908 38.3775 31.0197 37.4876 31.0064 36.0666C30.9997 35.3237 30.9957 34.5808 31.0077 33.8379C31.0304 32.507 31.9413 31.6105 33.2751 31.5946C33.6886 31.5867 34.1021 31.5906 34.5862 31.5906ZM34.4849 36.4652C34.4862 36.4507 34.4875 36.4361 34.4889 36.4229C34.7716 36.4229 35.0544 36.4202 35.3371 36.4229C36.2348 36.4308 36.5722 36.7632 36.5815 37.6518C36.5882 38.2795 36.5922 38.9072 36.5789 39.5349C36.5722 39.8593 36.6656 40.0262 37.0297 40.0156C37.6779 39.9971 38.3274 40.0024 38.9757 40.0143C39.3011 40.0196 39.4171 39.8818 39.4118 39.5667C39.3985 38.9059 39.4051 38.2451 39.4091 37.5842C39.4145 36.7831 39.7573 36.4348 40.5589 36.4242C41.2244 36.4149 41.89 36.4149 42.5555 36.4242C42.8743 36.4282 43.0037 36.2971 42.997 35.9792C42.9837 35.3184 42.985 34.6576 42.997 33.9968C43.0037 33.6737 42.8703 33.5598 42.5502 33.5678C41.8846 33.5836 41.2191 33.5784 40.5535 33.5704C39.7933 33.5611 39.4171 33.1903 39.4091 32.4435C39.4025 31.7999 39.3838 31.1536 39.4158 30.5114C39.4371 30.0849 39.2664 29.9644 38.865 29.9817C38.2674 30.0068 37.6672 30.0055 37.0684 29.9817C36.6989 29.9671 36.5655 30.0982 36.5762 30.465C36.5962 31.1417 36.5975 31.8197 36.5749 32.4964C36.5522 33.193 36.1681 33.5532 35.4705 33.5704C35.1051 33.5797 34.7383 33.5731 34.3728 33.5731C33.0004 33.5731 32.9964 33.5731 33.003 34.9503C33.0057 35.4098 32.8656 36.0521 33.1071 36.2785C33.3818 36.5354 34.01 36.4189 34.4849 36.4652Z" fill="black"/>
<path d="M34.5123 36.4606C34.0403 36.4144 33.4128 36.5305 33.1416 36.2759C32.9009 36.0489 33.0405 35.4089 33.0379 34.9524C33.0299 33.5801 33.0352 33.5801 34.4033 33.5801C34.7675 33.5801 35.1332 33.588 35.4974 33.5775C36.1928 33.559 36.5743 33.2014 36.5983 32.5073C36.6209 31.8331 36.6195 31.1575 36.5996 30.4832C36.5889 30.1177 36.7219 29.9871 37.0902 30.0016C37.6858 30.024 38.2854 30.0266 38.881 30.0016C39.2825 29.9844 39.4513 30.1045 39.4301 30.5294C39.3995 31.1693 39.4168 31.8133 39.4234 32.4545C39.4314 33.1988 39.805 33.5682 40.5641 33.5775C41.2275 33.5854 41.891 33.5906 42.5544 33.5748C42.8735 33.5669 43.0064 33.6804 42.9998 34.0023C42.9878 34.6608 42.9878 35.3192 42.9998 35.9776C43.0064 36.2943 42.8774 36.425 42.5597 36.421C41.8963 36.4118 41.2329 36.4118 40.5694 36.421C39.7704 36.4316 39.4287 36.7799 39.4234 37.5769C39.4194 38.2353 39.4128 38.8938 39.4261 39.5522C39.4327 39.8649 39.3157 40.0035 38.9913 39.9982C38.3452 39.9863 37.6977 39.9811 37.0516 39.9995C36.6887 40.0101 36.5956 39.8425 36.6022 39.5205C36.6155 38.8951 36.6102 38.2696 36.6049 37.6442C36.5969 36.7588 36.2592 36.4276 35.3645 36.4197C35.0826 36.417 34.8008 36.4197 34.5189 36.4197C34.5149 36.4316 34.5136 36.4461 34.5123 36.4606Z" fill="white"/>
</svg>
